<!DOCTYPE svg PUBLIC "-//W3C//DTD SVG 20010904//EN" "http://www.w3.org/TR/2001/REC-SVG-20010904/DTD/svg10.dtd">
<svg version="1.0" xmlns="http://www.w3.org/2000/svg" width="1280px" height="431px" viewBox="0 0 12800 4310" preserveAspectRatio="xMidYMid meet">
<g id="layer101" fill="#000000" stroke="none">
 <path d="M4217 4249 c-767 -68 -1377 -674 -1457 -1449 -6 -57 -10 -622 -10 -1417 l0 -1323 225 0 225 0 0 731 0 731 88 -77 c445 -391 1044 -513 1602 -325 586 196 1012 730 1079 1352 58 527 -155 1063 -553 1398 -267 224 -562 347 -911 380 -121 11 -157 11 -288 -1z m391 -468 c376 -83 692 -348 835 -702 63 -156 81 -253 81 -434 0 -112 -5 -181 -17 -232 -54 -236 -157 -423 -322 -588 -103 -102 -192 -165 -326 -230 -677 -324 -1476 79 -1635 825 -25 116 -25 334 0 450 77 359 306 655 634 819 111 56 242 93 407 115 62 9 260 -5 343 -23z"/>
 <path d="M7537 4250 c-554 -53 -1038 -383 -1289 -877 -189 -375 -224 -816 -96 -1223 151 -480 537 -871 1017 -1030 346 -115 691 -117 1030 -4 313 104 592 305 785 567 87 119 168 245 163 254 -3 5 -527 337 -1166 738 -638 402 -1160 734 -1161 738 0 5 26 34 57 64 163 156 356 258 585 309 91 21 336 23 428 5 418 -83 736 -353 899 -763 13 -32 26 -58 30 -58 8 0 400 166 407 172 8 8 -101 245 -152 329 -204 336 -513 584 -881 705 -194 64 -456 93 -656 74z m12 -1835 l953 -600 -49 -44 c-71 -65 -205 -150 -306 -194 -578 -249 -1247 9 -1517 585 -82 176 -121 402 -101 588 11 105 50 273 61 268 4 -2 435 -273 959 -603z"/>
 <path d="M9310 2145 l0 -2085 225 0 225 0 0 2085 0 2085 -225 0 -225 0 0 -2085z"/>
 <path d="M9970 2145 l0 -2085 225 0 225 0 2 1069 3 1068 675 -538 675 -539 359 0 c286 0 356 3 348 13 -6 6 -441 354 -966 772 -525 418 -954 764 -953 768 1 4 434 352 962 773 528 421 962 769 963 774 2 6 -130 10 -351 10 l-354 0 -677 -540 c-372 -297 -679 -540 -681 -540 -3 0 -5 243 -5 540 l0 540 -225 0 -225 0 0 -2085z"/>
 <path d="M12586 4219 c-100 -28 -123 -168 -37 -226 62 -42 136 -26 178 36 66 98 -26 223 -141 190z m104 -48 c38 -37 45 -70 26 -115 -18 -43 -71 -71 -117 -61 -43 10 -79 58 -79 107 0 89 107 133 170 69z"/>
 <path d="M12570 4094 l0 -65 53 3 c49 3 52 5 55 32 2 16 -1 33 -7 39 -6 6 -5 17 6 33 15 23 14 24 -8 24 -14 0 -30 -9 -37 -20 -7 -11 -17 -20 -22 -20 -6 0 -10 9 -10 20 0 11 -7 20 -15 20 -12 0 -15 -14 -15 -66z m78 -21 c2 -8 -6 -13 -22 -13 -17 0 -26 5 -26 16 0 19 41 16 48 -3z"/>
 <path d="M1074 3564 c-13 -70 3 -393 25 -494 12 -52 21 -98 21 -101 0 -3 -33 -11 -72 -17 -265 -41 -527 -176 -741 -382 -99 -94 -247 -278 -247 -305 0 -23 213 -238 325 -328 55 -45 141 -107 192 -140 l91 -59 -42 -52 c-171 -211 -294 -528 -352 -908 -18 -118 -30 -578 -17 -648 l8 -45 130 -9 c257 -17 655 24 890 92 296 86 512 207 690 386 229 232 368 544 441 993 17 106 32 594 20 658 -6 32 -9 35 -24 23 -12 -8 -11 -5 3 11 16 19 20 41 23 131 10 272 -49 558 -154 748 -178 324 -517 482 -1037 482 l-166 0 -7 -36z m1276 -1407 c0 -1 -26 -27 -57 -57 l-58 -55 55 58 c50 53 60 62 60 54z m-1618 -370 c-23 -24 -39 -47 -35 -52 5 -4 2 -5 -5 0 -10 5 -3 18 29 51 24 24 45 44 48 44 3 0 -14 -19 -37 -43z"/>
 </g>
<g id="layer102" fill="#25408f" stroke="none">
 <path d="M1074 3564 c-13 -70 3 -393 25 -494 12 -52 21 -98 21 -101 0 -3 -33 -11 -72 -17 -265 -41 -527 -176 -741 -382 -99 -94 -247 -278 -247 -305 0 -23 213 -238 325 -328 55 -45 141 -107 192 -140 l91 -59 -42 -52 c-171 -211 -294 -528 -352 -908 -18 -118 -30 -578 -17 -648 l8 -45 130 -9 c257 -17 655 24 890 92 296 86 512 207 690 386 229 232 368 544 441 993 17 106 32 594 20 658 -6 32 -9 35 -24 23 -12 -8 -11 -5 3 11 16 19 20 41 23 131 10 272 -49 558 -154 748 -178 324 -517 482 -1037 482 l-166 0 -7 -36z m1276 -1407 c0 -1 -26 -27 -57 -57 l-58 -55 55 58 c50 53 60 62 60 54z m-1618 -370 c-23 -24 -39 -47 -35 -52 5 -4 2 -5 -5 0 -10 5 -3 18 29 51 24 24 45 44 48 44 3 0 -14 -19 -37 -43z"/>
 </g>
<g id="layer103" fill="#0171bb" stroke="none">
 <path d="M1074 3564 c-13 -70 3 -393 25 -494 12 -52 21 -98 21 -101 0 -3 -33 -11 -72 -17 -265 -41 -527 -176 -741 -382 -99 -94 -247 -278 -247 -305 0 -23 213 -238 325 -328 55 -45 141 -107 192 -140 l91 -59 -42 -52 c-171 -211 -294 -528 -352 -908 -18 -118 -30 -578 -17 -648 l8 -45 130 -9 c257 -17 655 24 890 92 296 86 512 207 690 386 229 232 368 544 441 993 17 106 32 594 20 658 l-7 36 -117 -118 c-187 -189 -376 -329 -564 -418 -344 -162 -642 -163 -988 -3 l-85 40 75 69 c229 212 546 354 920 413 173 27 307 35 404 24 101 -11 340 -8 353 5 13 14 16 219 4 343 -67 686 -443 1004 -1184 1004 l-166 0 -7 -36z"/>
 </g>
<g id="layer104" fill="#008ed4" stroke="none">
 <path d="M1074 3564 c-13 -70 3 -393 25 -494 12 -52 21 -98 21 -101 0 -3 -33 -11 -72 -17 -265 -41 -527 -176 -741 -382 -99 -94 -247 -278 -247 -305 0 -23 213 -238 325 -328 55 -45 142 -108 192 -140 l93 -60 -32 -36 c-51 -57 -126 -178 -179 -286 -83 -171 -144 -381 -184 -635 -19 -119 -31 -577 -18 -650 l8 -45 130 -9 c252 -17 651 23 880 89 296 84 517 207 695 385 232 232 373 546 446 996 17 107 32 594 20 659 l-7 36 -117 -118 c-187 -189 -376 -329 -564 -418 -344 -162 -642 -163 -988 -3 l-85 40 75 69 c265 246 664 403 1104 435 118 9 147 19 79 28 -53 7 -168 39 -268 76 -62 23 -167 87 -244 149 -49 40 -151 163 -181 220 -11 20 -24 43 -29 51 -13 21 -71 167 -71 178 0 29 228 12 370 -28 149 -42 386 -172 535 -294 110 -90 218 -193 297 -283 97 -111 95 -112 97 58 4 416 -122 768 -339 948 -205 171 -477 251 -853 251 l-166 0 -7 -36z"/>
 </g>
<g id="layer105" fill="#83c9ef" stroke="none">
 <path d="M1074 3564 c-13 -70 3 -393 25 -494 12 -52 21 -98 21 -101 0 -3 -33 -11 -72 -17 -265 -41 -527 -176 -741 -382 -99 -94 -247 -278 -247 -305 0 -24 216 -240 333 -334 60 -48 146 -111 192 -140 l84 -53 81 74 c276 250 667 403 1108 434 50 4 92 10 92 14 0 4 -19 10 -42 14 -24 4 -81 18 -128 32 -316 96 -521 292 -630 601 l-18 51 51 4 c247 19 534 -84 810 -290 107 -79 317 -278 388 -367 l44 -55 9 32 c12 45 0 324 -18 433 -102 604 -473 885 -1169 885 l-166 0 -7 -36z"/>
 </g>

</svg>